<svg
  xmlns="http://www.w3.org/2000/svg" viewBox="0 0 22 18">
  <path fill="#fff" d="M11.14,7.42a3.24,3.24,0,0,0-3.22,3.21,3.11,3.11,0,0,0,3.22,3.06,2.92,2.92,0,0,0,3-3.06A3.06,3.06,0,0,0,11.14,7.42Z" />
  <path fill="#fff" d="M19.64,3H17V2.41C17,1.17,15.37,0,14.14,0H7.86C6.63,0,5,1.17,5,2.41V3H2.36C1,3,0,4.7,0,6v9.34A2.58,2.58,0,0,0,2.36,18H19.64A2.57,2.57,0,0,0,22,15.35V6C22,4.7,21,3,19.64,3ZM11.15,16.07A5.05,5.05,0,0,1,6,10.69c0-3.11,2.06-5.61,5.15-5.61a5.4,5.4,0,0,1,5.35,5.61A5.22,5.22,0,0,1,11.15,16.07ZM20,7H17V5h3Z" />
</svg>
