<svg xmlns="http://www.w3.org/2000/svg" xmlns:xlink="http://www.w3.org/1999/xlink">
  <symbol viewBox="0 0 15 15" id="icon-cross" xmlns="http://www.w3.org/2000/svg">
  <path fill="currentColor" d="M8.56 7.5l5.09-5.09a.75.75 0 0 0-1.06-1.06L7.5 6.44 2.41 1.35a.75.75 0 0 0-1.06 1.06L6.44 7.5l-5.09 5.09a.75.75 0 1 0 1.06 1.06L7.5 8.56l5.09 5.09a.75.75 0 0 0 1.06-1.06z"/>
  </symbol>

  <symbol viewBox="0 0 26 35" id="icon-doc" xmlns="http://www.w3.org/2000/svg">
  <path fill="currentColor" d="M5.15 27.84h15.63v1.3H5.15zM5.15 17.69h15.63v1.3H5.15zM5.15 21.08h15.63v1.3H5.15zM5.15 24.46h15.63v1.3H5.15z"/>
  <circle cx="8.7" cy="4.38" r=".1" fill="currentColor"/>
  <path fill="currentColor" d="M8.64 4.23h.12a.59.59 0 0 1 0-.1h.1V4h-.1a.59.59 0 0 1 0-.1h-.12a.58.58 0 0 1 0 .1h-.1v.12h.1a.59.59 0 0 1 0 .11zM9 5.38h.11a1.62 1.62 0 0 0 .2-.54c0-.18-.16-.26-.35-.3l-.16.79zM8.7 5.44c-.22 0-.41 0-.41.09s.19.09.41.09.41 0 .41-.09-.19-.09-.41-.09zM8.84 4.7c0-.13-.08-.17-.14-.17s-.14 0-.14.17a5.25 5.25 0 0 0 .14.66 5.33 5.33 0 0 0 .14-.66zM6.4 4.84a.33.33 0 0 1 0 .15.66.66 0 0 1-.05.22.72.72 0 0 0-.06.25c0 .16.1.28.3.36a1.12 1.12 0 0 0 .26.06c-.1 0-.37-.2-.37-.37a.67.67 0 0 1 .08-.26.76.76 0 0 0 .15-.25.24.24 0 0 0 0-.09.51.51 0 0 0-.17 0zM5.63 5.44a.27.27 0 0 1-.06.17.17.17 0 0 0 0 .17.24.24 0 0 1 .12-.14.31.31 0 0 0 .09-.08.43.43 0 0 0 0 .18.29.29 0 0 0 .07.26.45.45 0 0 1 0-.15.29.29 0 0 1 0-.14.35.35 0 0 0 .05-.18.5.5 0 0 0-.07-.22.48.48 0 0 1-.07-.22V5a.57.57 0 0 0-.25.06.28.28 0 0 0 .08.18.24.24 0 0 1 .04.2z"/>
  <path fill="currentColor" d="M6.21 4.87a.58.58 0 0 1 .3-.1h.1l-.17-.07-.1-.05a.18.18 0 0 0-.1 0c-.08 0-.15.07-.22.15a.45.45 0 0 1-.25.18.41.41 0 0 0-.26.12.71.71 0 0 1 .32-.1.71.71 0 0 0 .38-.13zM7.22 6.4A1 1 0 0 1 7 6a.07.07 0 0 0 0 .06.63.63 0 0 0 .22.34zM7.06 6.68A.28.28 0 0 0 7 6.9a.68.68 0 0 1 .52-.22h.07a.26.26 0 0 0-.24-.11.37.37 0 0 0-.29.11zM6.88 6.12H6.8c-.14 0-.28.06-.28.23a.26.26 0 0 0 .13.24.34.34 0 0 1 .26-.11.65.65 0 0 1 .3.08h.13a.94.94 0 0 1-.46-.44zm-.13.29v-.1.1zM8.29 5.41h.32l-.16-.79c-.19 0-.35.12-.35.3a1.62 1.62 0 0 0 .2.54zM7.67 5.91a1.31 1.31 0 0 0 .81-.26H8.4a.3.3 0 0 1-.13-.05 2.23 2.23 0 0 1-.6.31z"/>
  <circle cx="7.34" cy="5.07" r=".06" fill="currentColor"/>
  <path fill="currentColor" d="M7.3 5h.08a.4.4 0 0 1 0-.07h.07v-.09h-.07a.39.39 0 0 1 0-.07H7.3a.39.39 0 0 1 0 .07h-.07v.08h.07a.4.4 0 0 1 0 .08zM7.14 5.74h.14l-.11-.54c-.13 0-.23.08-.23.2a1 1 0 0 0 .13.35z"/>
  <ellipse cx="7.34" cy="5.84" fill="currentColor" rx=".27" ry=".06"/>
  <path fill="currentColor" d="M7.54 5.74h.07a1 1 0 0 0 .13-.35c0-.12-.1-.17-.23-.2l-.1.52zM7.43 5.29c0-.09-.05-.11-.09-.11s-.09 0-.09.11a3.48 3.48 0 0 0 .09.43 3.51 3.51 0 0 0 .09-.43zM6.74 6.82A.49.49 0 0 0 7 6.75a.3.3 0 0 1 .11-.14.59.59 0 0 0-.2 0 .64.64 0 0 1-.22.05.32.32 0 0 1-.21-.08.29.29 0 0 0 .26.24zM7.63 6.71a.5.5 0 0 0 .19.39.8.8 0 0 0 0-.14c0-.12-.16-.22-.2-.25zM7.23 9.67v-.16a.5.5 0 0 1-.08-.19v.19a.55.55 0 0 1-.08.18H7a.55.55 0 0 1 0-.19.48.48 0 0 1-.13.09A.56.56 0 0 0 7 10a.57.57 0 0 0 .23-.33zM6.82 9.71l.05-.17a.54.54 0 0 1-.06-.23 2.31 2.31 0 0 1-.07.22.57.57 0 0 1-.1.18.6.6 0 0 1 0-.2l.06-.15a.6.6 0 0 1-.18.13v.12a.6.6 0 0 0 0 .48.59.59 0 0 0 .3-.38zM6.38 9.69l.1-.18a.41.41 0 0 1 0-.13l-.07.12a.64.64 0 0 1-.15.17.69.69 0 0 1 .08-.21l.14-.21a.61.61 0 0 1 0-.12.71.71 0 0 1-.19.13 2.53 2.53 0 0 0-.18.26A.7.7 0 0 0 6 10a.67.67 0 0 0 .38-.31zM5.86 9.27l.07-.07A.6.6 0 0 1 6 9a2.7 2.7 0 0 0-.35.31.72.72 0 0 0-.22.5.69.69 0 0 0 .49-.24 2.82 2.82 0 0 0 .26-.31.57.57 0 0 1-.18.04.69.69 0 0 1-.2.15.75.75 0 0 1 .06-.18zM5.49 8.86L5.22 9a.78.78 0 0 0-.39.42.55.55 0 0 0 .18 0 .82.82 0 0 0 .4-.11A2.64 2.64 0 0 0 6 8.89a.73.73 0 0 1-.25.06l-.23.14a.72.72 0 0 1-.25.09.83.83 0 0 1 .22-.18l.13-.06h-.06zM5 9a3.13 3.13 0 0 0 .47-.16.65.65 0 0 1 .13-.18l-.33.1a1.39 1.39 0 0 1-.31 0H5a1 1 0 0 1 .29-.13 3.3 3.3 0 0 1 .5-.09h.07-.15a.74.74 0 0 1-.22 0 3.23 3.23 0 0 0-.55.1.84.84 0 0 0-.51.33.68.68 0 0 0 .37.03A1 1 0 0 0 5 9zM4.59 7.42a3.25 3.25 0 0 0 1 .17h.11-.08l-.09-.06a3.88 3.88 0 0 1-.53-.2 1 1 0 0 1-.33-.17 1.26 1.26 0 0 1 .33.05l.42.16a.76.76 0 0 1-.12-.17 4.14 4.14 0 0 0-.56-.2 1.32 1.32 0 0 0-.4-.07A.78.78 0 0 0 4 7a.91.91 0 0 0 .59.42zM4.58 6.72a3.71 3.71 0 0 0 .7.4V7h.08L5 6.79a1 1 0 0 1-.26-.27 1.33 1.33 0 0 1 .33.18 4.54 4.54 0 0 1 .4.32h.16a4.37 4.37 0 0 0-.76-.7 1.16 1.16 0 0 0-.66-.25 1 1 0 0 0 .37.65zM5.51 6.79a.73.73 0 0 1-.08-.29 1.11 1.11 0 0 1-.47-.8 5.68 5.68 0 0 0 .48.67.46.46 0 0 1 .06-.15A5.44 5.44 0 0 1 4.82 5a.48.48 0 0 0-.23.35 1 1 0 0 0 .26.82 4.42 4.42 0 0 0 .66.62z"/>
  <path fill="currentColor" d="M5.59 6.15a.29.29 0 0 0-.1.19.69.69 0 0 0 .2.62 2.24 2.24 0 0 0 .42.36.55.55 0 0 1-.11-.26L5.88 7a.6.6 0 0 1-.19-.37 2.31 2.31 0 0 0 .28.3.36.36 0 0 1 .07-.14L6 6.69a2.21 2.21 0 0 1-.41-.54zM5.32 7.08a.7.7 0 0 0 .31.41 2.87 2.87 0 0 0 .43.21l.07-.06-.3-.16a.56.56 0 0 1-.16-.15.57.57 0 0 1 .21.08 2.68 2.68 0 0 1 .3.21h.1a2.94 2.94 0 0 0-.49-.38.71.71 0 0 0-.37-.1zM5.25 7.74a.64.64 0 0 0 .41.26 2.57 2.57 0 0 0 .47 0h.12l-.08-.06h-.36a.54.54 0 0 1-.19-.08h.21l.3.08a.39.39 0 0 1 0-.11l-.34-.09h-.2a.63.63 0 0 0-.34 0zM5.71 8.44h.35A.36.36 0 0 1 6 8.29h-.36a.55.55 0 0 1 .2-.05H6a.34.34 0 0 1 .08-.13h-.34a.68.68 0 0 0-.45.21.67.67 0 0 0 .42.12zM5.55 8.86a.55.55 0 0 0 .2 0A.65.65 0 0 0 6 8.83l.17-.09a.33.33 0 0 1 0-.14L6 8.69a.54.54 0 0 1-.18 0A.53.53 0 0 1 6 8.62l.21-.08a.31.31 0 0 1 .07-.1h-.11l-.29.11a.62.62 0 0 0-.33.31zM6.28 8.89l.06-.06H6.2a.59.59 0 0 0-.2.41.59.59 0 0 0 .41-.18l.14-.15a.33.33 0 0 1 0-.12h-.1l-.11.12a.52.52 0 0 1-.16.11V9a.54.54 0 0 1 .1-.11zM6.62 9.1a.34.34 0 0 1-.07-.1.56.56 0 0 0 0 .44.56.56 0 0 0 .33-.29l.05-.11a.36.36 0 0 1-.12 0 .52.52 0 0 1-.09.12.49.49 0 0 1-.1-.06zM7.17 9.21h-.08A.49.49 0 0 1 7 9.3a.53.53 0 0 1 0-.18.33.33 0 0 1-.06-.12v.11a.53.53 0 0 0 0 .42.53.53 0 0 0 .23-.32zM7.37 9a.33.33 0 0 1-.07.15l-.06.06a.48.48 0 0 0 .09.32.51.51 0 0 0 .21-.36h-.06L7.41 9v.1a.52.52 0 0 1 0 .15.54.54 0 0 1 0-.16A1.16 1.16 0 0 1 7.37 9zM7.86 7.17a.49.49 0 0 0 .1.26H8a.32.32 0 0 0 .09-.21.41.41 0 0 0-.2-.22.82.82 0 0 1 0 .12.76.76 0 0 0-.03.05zM7.9 6.83c0 .06.06.14.17.23a.35.35 0 0 0 .07-.19c0-.09-.12-.19-.19-.24a.57.57 0 0 1 0 .11.59.59 0 0 0-.05.09zM8.49 6.88a.38.38 0 0 1 0 .09.38.38 0 0 0-.06.2.46.46 0 0 0 .14.27.35.35 0 0 0 .13-.22.56.56 0 0 0-.16-.33zM8.2 6.83c0 .1.12.19.14.21a.29.29 0 0 0 .09-.2.43.43 0 0 0-.21-.33.26.26 0 0 1 0 .08.69.69 0 0 1 0 .14.51.51 0 0 0-.02.1zM8.18 7a.48.48 0 0 0-.07.24.38.38 0 0 0 .12.25c.08-.12.11-.18.11-.23A.27.27 0 0 0 8.23 7zM8.7 7.32a.45.45 0 0 0-.11.28.34.34 0 0 0 .08.19l.05.09.06-.09a.34.34 0 0 0 .08-.19.45.45 0 0 0-.11-.28zM8.39 7.35a.43.43 0 0 0-.12.28.38.38 0 0 0 .07.21v.07l.06-.09a.31.31 0 0 0 .08-.19.33.33 0 0 0-.09-.21zM8 7.8a.82.82 0 0 1 0 .11l.07-.09a.29.29 0 0 0 .09-.21.41.41 0 0 0-.09-.2.35.35 0 0 0-.07.21.5.5 0 0 0 0 .18z"/>
  <circle cx="6.85" cy="11.74" r=".05" fill="currentColor" transform="rotate(-45.03 6.855 11.732)"/>
  <path fill="currentColor" d="M6.76 11.71zM6.18 11.13zM5.17 10.12zM6.06 11a.07.07 0 1 0 .1-.1l-.9-.85-.05.05zM5.18 9.94h-.11.05-.05a.15.15 0 0 0 0-.19.2.2 0 0 0-.07-.22.34.34 0 0 1 0 .16.15.15 0 0 1 0-.06h.06a.34.34 0 0 1-.16 0 .2.2 0 0 0 .11.16h.08H5a.08.08 0 0 0 0-.05v.11c0 .03.09 0 .1 0s.11.15.08.09zm-.32-.17zM5 10h-.15a.18.18 0 0 0 .09 0H5zM7.31 10.86h-.23l-.44.32a.12.12 0 0 1 .1.11 2.66 2.66 0 0 0 .53-.26.65.65 0 0 1 .04-.17zM10.31 10.86h-.23a.62.62 0 0 1 0 .2 2.63 2.63 0 0 0 .57.28.17.17 0 0 1 0-.07.16.16 0 0 1 0-.1zM11.31 10.81v.34H11.65a.45.45 0 0 0-.34-.34zM11.11 11.15v-.34a.45.45 0 0 0-.35.36h.29z"/>
  <circle cx="11.63" cy="11.27" r=".05" fill="currentColor"/>
  <circle cx="11.21" cy="11.24" r=".05" fill="currentColor"/>
  <circle cx="11.21" cy="10.97" r=".05" fill="currentColor"/>
  <circle cx="11.21" cy="11.11" r=".05" fill="currentColor"/>
  <circle cx="11.35" cy="11.25" r=".05" fill="currentColor"/>
  <circle cx="11.49" cy="11.25" r=".05" fill="currentColor"/>
  <circle cx="10.8" cy="11.27" r=".05" fill="currentColor"/>
  <circle cx="11.07" cy="11.25" r=".05" fill="currentColor"/>
  <circle cx="10.93" cy="11.25" r=".05" fill="currentColor"/>
  <circle cx="11.21" cy="10.84" r=".05" fill="currentColor"/>
  <path fill="currentColor" d="M11.34 10.61v-.06h-.1a.6.6 0 0 1 0-.1h-.12a.6.6 0 0 1 0 .1h-.1v.12h.1a.6.6 0 0 1 0 .1h.12a.6.6 0 0 1 0-.1h.1zM11.64 11.36h-.86a.45.45 0 0 0 .11.2.12.12 0 0 1 .11-.06.14.14 0 0 1 .1 0 .24.24 0 0 0 0 .06.12.12 0 0 1 0 .08h.14a.16.16 0 0 1 0-.06.13.13 0 0 1 .05-.09.26.26 0 0 0 0-.07.16.16 0 0 1 .07.11.16.16 0 0 1 0 .09h.06a.14.14 0 0 1 0-.05.12.12 0 0 1 0-.07.15.15 0 0 1 .1 0 .09.09 0 0 1 .06 0 .44.44 0 0 0 .06-.14z"/>
  <path fill="currentColor" d="M11.28 11.48a.26.26 0 0 1 0 .08.1.1 0 0 0 0 .07.09.09 0 0 0 0 .07s.07 0 .07-.08a.13.13 0 0 0 0-.07.13.13 0 0 0-.07-.07zM8.5 11.26a.4.4 0 0 1 0-.12.64.64 0 0 1 0-.1l-.05-.11a.51.51 0 0 1-.33.31.22.22 0 0 0 .2.09.23.23 0 0 0 .18-.07zM6.78 11.58l-.13-.18a.15.15 0 0 1 0 .06.12.12 0 0 1 0 .1.32.32 0 0 0 .1.06zM6.27 11.24H6.48a1.23 1.23 0 0 0-.22-.16l-.08.08.05.09zM7.35 10.79a.67.67 0 0 1 .06-.21h-.26a.67.67 0 0 0-.2.25.65.65 0 0 0 .23 0 .5.5 0 0 0 .17-.04zM7.3 10.51h.13a.61.61 0 0 1 .11-.16.39.39 0 0 1-.18-.05 1.15 1.15 0 0 1-.32.06.38.38 0 0 0 .26.15zM7.61 11.06a.5.5 0 0 1 0-.14.51.51 0 0 1 0-.11h-.18a.59.59 0 0 0 0 .39.67.67 0 0 0 .18-.14zM7.64 10.92a.38.38 0 0 0 .11.28 1.11 1.11 0 0 1 .11-.31.39.39 0 0 1 0-.19.58.58 0 0 1-.18.09.45.45 0 0 0-.04.13z"/>
  <path fill="currentColor" d="M8.4 10.55a1 1 0 0 0-.18.2.64.64 0 0 1 .19.27.42.42 0 0 0 .07-.13.67.67 0 0 1 0-.2.45.45 0 0 1 0-.08zM6.18 6.72A.32.32 0 0 0 6 7a.54.54 0 0 0 .15.35 1.08 1.08 0 0 0 .33.25.42.42 0 0 0-.16 0H6.2a.35.35 0 0 0-.13.09.34.34 0 0 0 0 .15.37.37 0 0 0 .3.16.33.33 0 0 0-.24.08.3.3 0 0 0-.13.15.31.31 0 0 0 .1.12.28.28 0 0 0 .17 0h.13a.32.32 0 0 0-.18.2.29.29 0 0 0 0 .15.3.3 0 0 0 .15 0 .32.32 0 0 0 .23-.11.32.32 0 0 0 0 .25.31.31 0 0 0 .07.13.3.3 0 0 0 .13 0 .34.34 0 0 0 .2-.13.33.33 0 0 0 0 .25.29.29 0 0 0 .11.09.3.3 0 0 0 .11-.08.33.33 0 0 0 .07-.24.33.33 0 0 0 .14.2.44.44 0 0 0 .17.06v-.8a.45.45 0 0 1-.43.21c-.24 0-.48-.13-.48-.38a.79.79 0 0 1 .11-.38.44.44 0 0 0 .07-.19c0-.18-.14-.28-.29-.4a1 1 0 0 1-.4-.46z"/>
  <path fill="currentColor" d="M8 7.83a.37.37 0 0 1-.36.17.39.39 0 0 1-.27-.12.24.24 0 0 0 0 .22.31.31 0 0 0 .26.13v-.15H8a.31.31 0 0 0 0-.25zM7.66 9.15h-.08a.65.65 0 0 1-.09.23.48.48 0 0 0 .17.22zM8.93 10.56a.46.46 0 0 0-.22.22.46.46 0 0 0-.22-.22.39.39 0 0 0 0 .07 1 1 0 0 0 .24.55 1 1 0 0 0 .24-.55.39.39 0 0 0-.04-.07zM7.66 10.28V10a1.33 1.33 0 0 1-.39.16.39.39 0 0 0 .28.13zM7.66 10.34h-.08a.73.73 0 0 0-.18.39.75.75 0 0 0 .39-.13.26.26 0 0 0 .07-.1.26.26 0 0 1-.2-.16zM8.27 10.55H8A.36.36 0 0 0 8 11a1.26 1.26 0 0 1 .27-.45z"/>
  <path fill="currentColor" d="M8.7 11.25a.71.71 0 0 1-.1-.13v.05a.44.44 0 0 0 0 .26.3.3 0 0 0 .1.12.3.3 0 0 0 .1-.12.44.44 0 0 0 0-.26v-.05a.74.74 0 0 1-.1.13zM7.66 9.66l-.1-.08a2.16 2.16 0 0 1-.09.47l.19-.1zM11.07 11.49a.11.11 0 0 0-.07 0 .09.09 0 0 0-.06 0 .09.09 0 0 0 0 .07s.06 0 .06-.06a.09.09 0 0 0 0-.06.21.21 0 0 1 .07.05zM11.47 11.56a.07.07 0 0 0 .07.07.07.07 0 0 0 0-.08s0-.08-.06-.08h-.07v.06a.1.1 0 0 0 .06.03zM7.5 13a.42.42 0 0 0 .32-.12.39.39 0 0 1-.24-.36c0-.23.26-.47.5-.67l.15-.13a4.32 4.32 0 0 0 .3-.33v-.07a1.43 1.43 0 0 1-.74.41.43.43 0 0 1-.31-.11.25.25 0 0 0 0 .33.82.82 0 0 0-.41.63.41.41 0 0 0 .43.42zm0-1.32s.07.13.26.14c-.21.07-.31-.03-.29-.14zm.16.36a.83.83 0 0 0-.25.53.47.47 0 0 0 0 .21.27.27 0 0 1-.13-.24.72.72 0 0 1 .35-.54z"/>
  <path fill="currentColor" d="M8.47 13a.33.33 0 0 0 .06-.12h-.1a.23.23 0 0 1-.18-.07.35.35 0 0 1-.07-.23 1.48 1.48 0 0 1 .19-.58 4.71 4.71 0 0 0 .22-.54c-.06.08-.14.17-.23.26a1.77 1.77 0 0 0-.6 1v.05a.34.34 0 0 0 .12.08l-.09.15a.45.45 0 0 0 .4.21.34.34 0 0 0 .28-.21zm-.56-.38a.78.78 0 0 1 .19-.48 1.36 1.36 0 0 0-.12.47.37.37 0 0 0 .12.29.29.29 0 0 1-.18-.24z"/>
  <path fill="currentColor" d="M8.7 13.33a.56.56 0 0 0 .24-.21.36.36 0 0 1-.07-.15H9a.83.83 0 0 0 0-.15 2.5 2.5 0 0 0-.13-.66 5.67 5.67 0 0 1-.13-.55H8.62a5.52 5.52 0 0 1-.13.55 2.51 2.51 0 0 0-.13.66.81.81 0 0 0 0 .15h.21a.37.37 0 0 1-.07.15.56.56 0 0 0 .2.21zm0-1.19a4.49 4.49 0 0 1 .05.62.67.67 0 0 1-.05.32.67.67 0 0 1-.05-.32 4.51 4.51 0 0 1 .05-.62zM7.31 6.42a1 1 0 0 0 .22.14 1.88 1.88 0 0 1-.13-.23.8.8 0 0 0 .27.17 1.25 1.25 0 0 0-.08-.2 1 1 0 0 0 .25.17.71.71 0 0 0-.1-.21 1 1 0 0 0 .26.15 1.13 1.13 0 0 0 0-.17.49.49 0 0 0 .4.22.42.42 0 0 0 .21-.06.8.8 0 0 1-.49-.17.42.42 0 0 0 .2-.14H8a.44.44 0 0 0 .3-.19 3.24 3.24 0 0 1-.77.1 4.39 4.39 0 0 1-.54 0 1 1 0 0 0 .32.42zm.19-.32a.49.49 0 0 0-.26.09.18.18 0 0 1-.06-.13 2.17 2.17 0 0 0 .32.04z"/>
  <path fill="currentColor" d="M7.89 6.43v.08c.08.07.2.18.25.23a.51.51 0 0 0 0-.26L8 6.42v.07-.03zM7.56 6.51a1 1 0 0 0 .29.31v-.1a.5.5 0 0 0 0-.19l-.11-.06v.1h-.1zM8.54 7.77A.49.49 0 0 0 8.4 8a.34.34 0 0 0 0 .05h.27a.45.45 0 0 0-.11-.26zM8.23 7.78a.57.57 0 0 0-.23.29h.32a.53.53 0 0 0-.12-.29zM4.79 8.49a3.28 3.28 0 0 0 .59-.07l-.12-.08H5a.73.73 0 0 1-.26 0A.88.88 0 0 1 5 8.21h.3a.73.73 0 0 1 .2-.13h-.73a.9.9 0 0 0-.61.22.8.8 0 0 0 .58.21zM5.26 8h.26a.71.71 0 0 1-.23-.15h-.3a1 1 0 0 1-.33-.1h.53l.09-.05a4.85 4.85 0 0 0-.6-.11h-.14a.88.88 0 0 0-.54.06.86.86 0 0 0 .65.35 5.26 5.26 0 0 0 .61 0zM6.52 11.38h-.14a.1.1 0 0 0 0 .06.06.06 0 0 0 0 .05h.06a.1.1 0 0 0 0-.08z"/>
  <path fill="currentColor" d="M6.6 11.37h.06a.07.07 0 0 0-.08-.06.09.09 0 0 0-.08.06.13.13 0 0 0-.07.05h.16zM6.34 11.38a.09.09 0 0 0 .05-.06h.07H6.29a.07.07 0 0 0 0 .08.06.06 0 0 0 .06 0zM10.5 5.89a1.12 1.12 0 0 0 .26-.06c.2-.08.3-.2.3-.36a.72.72 0 0 0-.06-.25.66.66 0 0 1-.05-.22.33.33 0 0 1 0-.15h-.11a.51.51 0 0 0-.17 0 .25.25 0 0 0 0 .09.76.76 0 0 0 .09.3.67.67 0 0 1 .08.26c.03.19-.24.34-.34.39zM11.9 5.13a.57.57 0 0 0-.28-.13.48.48 0 0 1-.07.22.5.5 0 0 0-.07.22.35.35 0 0 0 .05.18.29.29 0 0 1 0 .14.44.44 0 0 1 0 .15.29.29 0 0 0 .14-.24.43.43 0 0 0 0-.18.32.32 0 0 0 .09.08.24.24 0 0 1 .12.14.17.17 0 0 0 0-.17.28.28 0 0 1-.06-.17.24.24 0 0 1 .06-.13.29.29 0 0 0 .02-.11z"/>
  <path fill="currentColor" d="M11.18 4.87a.71.71 0 0 0 .38.12.72.72 0 0 1 .31.06.41.41 0 0 0-.26-.12.45.45 0 0 1-.25-.18c-.07-.08-.13-.15-.22-.15a.18.18 0 0 0-.1 0l-.04.1-.18.08h.1a.58.58 0 0 1 .26.09zM10.18 6.4a.63.63 0 0 0 .3-.32.07.07 0 0 0 0-.06 1 1 0 0 1-.3.38zM10.4 6.9a.28.28 0 0 0-.07-.21.37.37 0 0 0-.28-.11.26.26 0 0 0-.24.11h.07a.68.68 0 0 1 .52.21z"/>
  <path fill="currentColor" d="M10.59 6.11h-.08a.94.94 0 0 1-.49.41h.13a.64.64 0 0 1 .3-.08.34.34 0 0 1 .26.11.26.26 0 0 0 .13-.24c.04-.14-.11-.2-.25-.2zm.05.3v-.1.1h.01zM9 5.64h-.09a1.31 1.31 0 0 0 .81.26 2.24 2.24 0 0 1-.6-.32.3.3 0 0 1-.12.06z"/>
  <circle cx="10.05" cy="5.07" r=".06" fill="currentColor"/>
  <path fill="currentColor" d="M10 5h.08a.4.4 0 0 1 0-.07h.07v-.09h-.07a.39.39 0 0 1 0-.07H10a.39.39 0 0 1 0 .07h-.07v.08H10A.4.4 0 0 1 10 5zM10.25 5.74h.07a1 1 0 0 0 .13-.35c0-.12-.1-.17-.23-.2l-.1.52z"/>
  <ellipse cx="10.05" cy="5.84" fill="currentColor" rx=".27" ry=".06"/>
  <path fill="currentColor" d="M9.85 5.74H10l-.1-.52c-.13 0-.23.08-.23.2a1 1 0 0 0 .13.35zM10.14 5.29c0-.09-.05-.11-.09-.11s-.09 0-.09.11a3.44 3.44 0 0 0 .09.43 3.39 3.39 0 0 0 .09-.43zM10.54 6.66a.58.58 0 0 0-.2 0 .3.3 0 0 1 .11.14.49.49 0 0 0 .23.07.29.29 0 0 0 .32-.24.33.33 0 0 1-.21.08.64.64 0 0 1-.25-.05zM9.56 7a.75.75 0 0 0 0 .14.5.5 0 0 0 .19-.39s-.19.1-.19.25zM10.49 9.59a.48.48 0 0 1-.13-.09.55.55 0 0 1 0 .19.54.54 0 0 1-.08-.18v-.19a.5.5 0 0 1-.08.19v.16a.56.56 0 0 0 .26.38.56.56 0 0 0 .03-.46zM10.89 10.08a.6.6 0 0 0 0-.48v-.12a.6.6 0 0 1-.18-.13l.06.15a.61.61 0 0 1 0 .2.57.57 0 0 1-.1-.18 2.33 2.33 0 0 1-.07-.22.52.52 0 0 1-.06.23l.05.17a.59.59 0 0 0 .3.38zM11.16 9.24a.71.71 0 0 1-.16-.13.71.71 0 0 1 0 .12l.14.21a.67.67 0 0 1 .08.21.62.62 0 0 1-.15-.17L11 9.36a.45.45 0 0 1 0 .13l.1.18a.67.67 0 0 0 .42.34.69.69 0 0 0-.1-.53 2.58 2.58 0 0 0-.26-.24z"/>
  <path fill="currentColor" d="M12 9.83a.72.72 0 0 0-.22-.5 2.71 2.71 0 0 0-.36-.33.61.61 0 0 1 0 .19l.07.07a.76.76 0 0 1 .14.2.68.68 0 0 1-.2-.15.56.56 0 0 1-.16 0 2.8 2.8 0 0 0 .26.31.69.69 0 0 0 .49.24zM12.56 9.42a.78.78 0 0 0-.39-.42l-.27-.13h-.06l.06.13a.84.84 0 0 1 .21.16.72.72 0 0 1-.25-.09l-.23-.14a.73.73 0 0 1-.25-.06 2.64 2.64 0 0 0 .61.44.82.82 0 0 0 .4.11.56.56 0 0 0 .17 0zM13 8.9a.84.84 0 0 0-.51-.33 3.23 3.23 0 0 0-.55-.1.73.73 0 0 1-.22 0h-.11.07a3.31 3.31 0 0 1 .5.09 1 1 0 0 1 .29.13 1.39 1.39 0 0 1-.31 0l-.33-.1a.64.64 0 0 1 .13.18 3.16 3.16 0 0 0 .47.16 1 1 0 0 0 .25 0A.68.68 0 0 0 13 8.9zM13.06 6.9a1.32 1.32 0 0 0-.4.07 4.11 4.11 0 0 0-.57.23.76.76 0 0 1-.11.17l.42-.16a1.26 1.26 0 0 1 .36-.06 1 1 0 0 1-.33.17 3.89 3.89 0 0 1-.56.14l-.09.06h-.08.11a3.25 3.25 0 0 0 1-.17.91.91 0 0 0 .56-.35.78.78 0 0 0-.31-.1zM11.77 7h.16a4.37 4.37 0 0 1 .4-.32 1.33 1.33 0 0 1 .33-.18 1 1 0 0 1-.26.27l-.35.23h.08v.08a3.72 3.72 0 0 0 .7-.4 1 1 0 0 0 .43-.64 1.16 1.16 0 0 0-.66.25 4.35 4.35 0 0 0-.83.71zM12 6.37a5.67 5.67 0 0 0 .48-.67 1.11 1.11 0 0 1-.47.8.73.73 0 0 1-.08.29 4.42 4.42 0 0 0 .65-.62 1 1 0 0 0 .26-.82.48.48 0 0 0-.27-.35 5.41 5.41 0 0 1-.67 1.17.46.46 0 0 1 .06.15z"/>
  <path fill="currentColor" d="M11.91 6.33a.29.29 0 0 0-.1-.19 2.22 2.22 0 0 1-.41.54l-.08.08a.36.36 0 0 1 .07.14 2.3 2.3 0 0 0 .28-.3.61.61 0 0 1-.19.37l-.12.1a.55.55 0 0 1-.1.25 2.22 2.22 0 0 0 .42-.36.69.69 0 0 0 .23-.63zM12.08 7.08h-.14a.71.71 0 0 0-.37.1 2.94 2.94 0 0 0-.49.38h.1a2.63 2.63 0 0 1 .3-.21.56.56 0 0 1 .21-.08.57.57 0 0 1-.16.15l-.3.16.07.06a2.85 2.85 0 0 0 .43-.21.7.7 0 0 0 .35-.35zM12.15 7.74a.63.63 0 0 0-.34-.1h-.13l-.34.09a.39.39 0 0 1 0 .11l.3-.08h.21a.55.55 0 0 1-.19.08h-.36l-.15.16h.12a2.58 2.58 0 0 0 .47 0 .65.65 0 0 0 .41-.26zM11.68 8.44a.67.67 0 0 0 .43-.15.67.67 0 0 0-.45-.21h-.34a.34.34 0 0 1 .08.13h.14a.56.56 0 0 1 .2.05h-.35a.38.38 0 0 1-.09.09h.35zM11.65 8.89a.55.55 0 0 0 .2 0 .62.62 0 0 0-.33-.33l-.29-.11h-.11a.33.33 0 0 1 .07.1l.21.08a.54.54 0 0 1 .16.11.54.54 0 0 1-.18 0l-.16-.08a.35.35 0 0 1 0 .14l.17.09a.65.65 0 0 0 .26 0zM11.42 9.24a.59.59 0 0 0-.19-.42h-.14l.06.06a.52.52 0 0 1 .11.16.53.53 0 0 1-.16-.11l-.1-.1h-.1a.33.33 0 0 1 0 .12l.14.15a.59.59 0 0 0 .41.18zM10.71 9.11h-.12l.05.11a.56.56 0 0 0 .33.29.56.56 0 0 0 0-.44.34.34 0 0 1-.07.13.52.52 0 0 1 0 .13.51.51 0 0 1-.19-.22zM10.51 9.1v-.11V9a.32.32 0 0 1-.06.15.51.51 0 0 1 0 .18.48.48 0 0 1-.07-.13h-.08a.52.52 0 0 0 .25.31.53.53 0 0 0-.04-.41zM10 9.29a.5.5 0 0 1 0-.15v-.1h-.11a.51.51 0 0 0 .21.36.48.48 0 0 0 .09-.32l-.06-.06A.33.33 0 0 1 10 9a1.33 1.33 0 0 1 0 .13.5.5 0 0 1 0 .16zM9.51 7a.41.41 0 0 0-.17.27.31.31 0 0 0 .09.21.48.48 0 0 0 .1-.26.78.78 0 0 0 0-.09.7.7 0 0 1 0-.12zM9.46 6.62c-.07.06-.19.15-.19.24a.34.34 0 0 0 .07.19c.11-.09.17-.17.17-.23a.6.6 0 0 0 0-.1.62.62 0 0 1 0-.11zM8.9 6.89a.56.56 0 0 0-.16.33.35.35 0 0 0 .13.22.45.45 0 0 0 .13-.27.38.38 0 0 0-.06-.17.35.35 0 0 1-.04-.11zM9.18 6.5a.43.43 0 0 0-.18.34A.29.29 0 0 0 9 7s.14-.11.14-.21a.46.46 0 0 0 0-.09.68.68 0 0 1 0-.14.25.25 0 0 1 0-.08zM9.21 7a.27.27 0 0 0-.21.23c0 .05 0 .11.11.23a.38.38 0 0 0 .12-.25.48.48 0 0 0-.02-.21zM9 7.34v.07a.33.33 0 0 0-.09.21.31.31 0 0 0 .09.2v.09-.07a.38.38 0 0 0 .07-.21.43.43 0 0 0-.07-.28zM9.32 7.38a.42.42 0 0 0-.09.2.29.29 0 0 0 .09.21l.07.09a.77.77 0 0 1 0-.11.5.5 0 0 0 0-.18.35.35 0 0 0-.07-.21zM8.9 11.13a.43.43 0 0 1 0 .12.23.23 0 0 0 .15.06.23.23 0 0 0 .2-.09.51.51 0 0 1-.33-.31l-.06.09a.58.58 0 0 1 0 .1zM10.44 10.77a.68.68 0 0 0-.2-.25H10a.69.69 0 0 1 .06.21.5.5 0 0 0 .17 0 .65.65 0 0 0 .21.04zM10 10.52h.13a.39.39 0 0 0 .26-.15 1.15 1.15 0 0 1-.39-.07.39.39 0 0 1-.18.05.59.59 0 0 1 .18.17zM10.06 11.22a.59.59 0 0 0 0-.39h-.18a.47.47 0 0 1 0 .11.49.49 0 0 1 0 .14.67.67 0 0 0 .18.14zM9.53 10.88a1.13 1.13 0 0 1 .11.31.38.38 0 0 0 .11-.28.48.48 0 0 0 0-.13.58.58 0 0 1-.18-.09.39.39 0 0 1-.04.19z"/>
  <path fill="currentColor" d="M9 10.88A.41.41 0 0 0 9 11a.63.63 0 0 1 .19-.27 1 1 0 0 0-.18-.2H9a.42.42 0 0 1 0 .08.67.67 0 0 1 0 .2zM11.21 6.72a1 1 0 0 1-.4.46c-.16.12-.29.22-.29.4a.45.45 0 0 0 .06.19.79.79 0 0 1 .11.38c0 .24-.24.38-.48.38a.45.45 0 0 1-.43-.21h-.05v.79a.44.44 0 0 0 .17-.06.32.32 0 0 0 .14-.2.33.33 0 0 0 .07.24.3.3 0 0 0 .11.08.29.29 0 0 0 .11-.09.33.33 0 0 0 .06-.24.34.34 0 0 0 .16.2.3.3 0 0 0 .13 0 .3.3 0 0 0 .07-.13.32.32 0 0 0 0-.25.32.32 0 0 0 .23.11.3.3 0 0 0 .15 0 .29.29 0 0 0 0-.15.31.31 0 0 0-.13-.22h.11a.28.28 0 0 0 .17 0 .31.31 0 0 0 .1-.12.3.3 0 0 0-.09-.13A.34.34 0 0 0 11 8a.37.37 0 0 0 .23-.16.34.34 0 0 0 0-.15.35.35 0 0 0-.13-.09h-.12a.41.41 0 0 0-.16 0 1.07 1.07 0 0 0 .33-.25.54.54 0 0 0 .21-.35.32.32 0 0 0-.15-.28z"/>
  <path fill="currentColor" d="M9.73 8.07v.19a.31.31 0 0 0 .27-.12.24.24 0 0 0 0-.22.39.39 0 0 1-.24.08.37.37 0 0 1-.33-.21.31.31 0 0 0 0 .25h.31zM9.82 9.14h-.08v.46a.48.48 0 0 0 .17-.22.65.65 0 0 1-.09-.23zM9.73 10.28h.11a.39.39 0 0 0 .28-.13 1.33 1.33 0 0 1-.39-.15zM10 10.78a.74.74 0 0 0-.18-.39h-.08a.26.26 0 0 1-.22.21.26.26 0 0 0 .07.1.75.75 0 0 0 .39.13zM9.44 10.55h-.32a1.27 1.27 0 0 1 .29.44.36.36 0 0 0 .03-.44zM9.73 9.66v.28l.19.1a2.11 2.11 0 0 1-.09-.47zM10.31 12.59a.82.82 0 0 0-.42-.59.25.25 0 0 0 0-.33.43.43 0 0 1-.31.11 1.43 1.43 0 0 1-.74-.41v.07a4.28 4.28 0 0 0 .3.33l.15.13c.23.21.5.45.5.67a.39.39 0 0 1-.24.36.42.42 0 0 0 .35.07.41.41 0 0 0 .41-.41zm-.39-.91c0 .11-.08.21-.26.14.19-.01.26-.11.26-.14zm-.16.32a.72.72 0 0 1 .32.5.27.27 0 0 1-.13.24.47.47 0 0 0 0-.21.83.83 0 0 0-.19-.53z"/>
  <path fill="currentColor" d="M9.61 13l-.07-.06a.34.34 0 0 0 .12-.08.51.51 0 0 0 0-.05 1.77 1.77 0 0 0-.6-1 2.53 2.53 0 0 1-.23-.26A4.72 4.72 0 0 0 9 12a1.48 1.48 0 0 1 .18.61.35.35 0 0 1-.07.23.23.23 0 0 1-.18.07h-.1a.35.35 0 0 0 .06.12.34.34 0 0 0 .29.13.45.45 0 0 0 .43-.16zm-.31-.78a.77.77 0 0 1 .19.48.29.29 0 0 1-.19.28.38.38 0 0 0 .12-.29 1.36 1.36 0 0 0-.13-.51zM9.4 6.09h-.25a.42.42 0 0 0 .2.14.8.8 0 0 1-.49.17.43.43 0 0 0 .21.06.49.49 0 0 0 .4-.22 1.19 1.19 0 0 0 0 .17 1 1 0 0 0 .23-.16.69.69 0 0 0-.1.21 1 1 0 0 0 .2-.16 1.31 1.31 0 0 0-.08.2.8.8 0 0 0 .28-.17 1.81 1.81 0 0 1-.13.23 1 1 0 0 0 .22-.14 1 1 0 0 0 .32-.51 4.39 4.39 0 0 1-.54 0 3.24 3.24 0 0 1-.75-.06.45.45 0 0 0 .28.24zm.44 0a2.16 2.16 0 0 0 .28 0 .18.18 0 0 1-.06.13.49.49 0 0 0-.26-.09z"/>
  <path fill="currentColor" d="M9.24 6.49a.52.52 0 0 0 0 .26s.16-.16.25-.23v-.09H9.34v-.01zM9.68 6.46l-.11.06a.5.5 0 0 0 0 .19.79.79 0 0 1 0 .1 1 1 0 0 0 .29-.31h-.19v-.1zM8.86 7.76a.46.46 0 0 0-.11.26H9A.31.31 0 0 0 9 8a.5.5 0 0 0-.14-.25zM9 8.07h.32a.57.57 0 0 0-.19-.29.53.53 0 0 0-.13.29zM12.62 8.06h-.72a.73.73 0 0 1 .2.13h.27a.88.88 0 0 1 .27.05.73.73 0 0 1-.25 0h-.21l-.18.17a3.28 3.28 0 0 0 .59.07.8.8 0 0 0 .58-.21.9.9 0 0 0-.55-.21zM13.36 7.65a.88.88 0 0 0-.51-.13h-.16a4.83 4.83 0 0 0-.6.11l.09.05h.54a.94.94 0 0 1-.33.1h-.3a.72.72 0 0 1-.23.15h.26a5.26 5.26 0 0 0 .61 0 .86.86 0 0 0 .63-.28zM6.52 11.6a.08.08 0 0 0 .07 0 .09.09 0 0 0 0-.08.08.08 0 0 0 0-.07.08.08 0 0 1 0 .06h-.05v.1zM8.2 9.31v-.14a.06.06 0 0 1 .06-.06h.06A.23.23 0 0 0 8.14 9a.12.12 0 0 0-.14.14c0 .1.09.13.09.22a.15.15 0 0 1 0 .1.16.16 0 0 0 .11-.15zM8.47 8.66a.18.18 0 0 1-.1-.13.57.57 0 0 0-.29.23c.06 0 .05 0 .08.08s.05 0 .1 0a.11.11 0 0 1 .11 0 .12.12 0 0 0 .13 0 .23.23 0 0 0 0-.12.45.45 0 0 1-.03-.06zM8.17 10.22h.07a.23.23 0 0 1 0-.11h-.09A.1.1 0 0 1 8 10v-.12-.07a.11.11 0 0 1 0 .05V10a.19.19 0 0 0 .17.22zM8.64 9.24a.67.67 0 0 0-.07-.12.14.14 0 0 1 0-.05.33.33 0 0 0 0 .13.52.52 0 0 0 0 .16h.15-.02a.15.15 0 0 0 0-.05z"/>
  <path fill="currentColor" d="M8.71 9.44h-.26a.56.56 0 0 1 0-.17.37.37 0 0 1 0-.15.24.24 0 0 0-.18.23.58.58 0 0 0 0 .17.28.28 0 0 0-.07.14.11.11 0 0 0-.06.11.4.4 0 0 0 0 .16V10a.1.1 0 0 0 .07 0h.05a.06.06 0 0 0 0-.05 1.24 1.24 0 0 1 0-.21.39.39 0 0 0 .24-.21h.19z"/>
  <path fill="currentColor" d="M8.68 9.51h-.14a.27.27 0 0 1-.05.08v.14a.58.58 0 0 1 .08.16h.07l-.07-.13v-.08a.3.3 0 0 0 .11-.17zM8.84 9.35h.07a.68.68 0 0 0 0-.11.55.55 0 0 0-.15-.24 1 1 0 0 1 .08.3v.05z"/>
  <path fill="currentColor" d="M9.42 9.31l-.09-.1H9.12a.35.35 0 0 0 0-.07c0-.12-.05-.13-.05-.23a.14.14 0 0 1 0-.11.33.33 0 0 0 0 .08.45.45 0 0 0 0 .07l.06-.07v-.07a.21.21 0 0 0 0-.22s0-.05-.05-.07 0 0-.08 0h-.28c-.04 0-.06 0-.07.06s0 0 0 .08v.14a.58.58 0 0 1 .13.23.9.9 0 0 1 0 .11v.06H8.7v.08h.05a.35.35 0 0 0 .25.34.12.12 0 0 0 0 .09.87.87 0 0 0 0 .16v.05a.11.11 0 0 0 0 .07V10a.18.18 0 0 1 0-.06V9.8l-.57-1.43v-.11.13a.22.22 0 0 0 0 .12.15.15 0 0 0 .1.12.41.41 0 0 0 0 .1.26.26 0 0 1 0 .14.33.33 0 0 0-.03.13c0 .08.05.08.1.13a1.89 1.89 0 0 1 .11.2v.13c0 .04.05.09.05.11v.06c0 .01 0 0 0 0l.06.18v.1h-.05v-.06h.06a.61.61 0 0 0-.23 0c-.15 0-.29.09-.29.2a.23.23 0 0 0 .24.22c.15 0 .24-.05.24-.15a.1.1 0 0 0 0-.08.18.18 0 0 0-.1 0H8.5a.09.09 0 0 1 0-.06.1.1 0 0 1 0-.06h.09a.15.15 0 0 1 .17.12.07.07 0 0 1 0 .05.1.1 0 0 1-.07.08c0 .07-.08.1-.13.11a.36.36 0 0 0 .15 0c.27 0 .36-.12.4-.23a.13.13 0 0 1 0 .09.14.14 0 0 0 .08-.11c.08-.06.07-.09.09-.13a.06.06 0 0 1 0 .05.1.1 0 0 1 .06-.09c-.08 0-.11.1-.12.15s0-.08.06-.11a.06.06 0 0 0-.08 0v.07a.34.34 0 0 0 0-.12.71.71 0 0 1 0-.08.12.12 0 0 0 0-.11.66.66 0 0 0 0-.21s.14 0 .17-.11a.22.22 0 0 1 .09.12.06.06 0 0 0 0 .05.13.13 0 0 0 .07.06v-.05c0-.05 0 0 0 0a.09.09 0 0 0-.11-.21z"/>
  <path fill="currentColor" d="M8.62 8.43h-.13l.39 1.16H9l-.09-.06a.48.48 0 0 1 0-.11v-.03a.86.86 0 0 1 0-.12.88.88 0 0 0-.18-.27.09.09 0 0 1 0-.07.1.1 0 0 1 0-.08.1.1 0 0 1 0-.07.2.2 0 0 0-.07-.15.11.11 0 0 0 .06-.07v-.08a.09.09 0 0 0-.13 0 .17.17 0 0 0 .03-.05z"/>
  <path fill="currentColor" d="M25.31 8.46V8.4a5.49 5.49 0 0 0-.82-1.27l-4.97-5.49a4.81 4.81 0 0 0-1.17-.91V.59h-.27a5.51 5.51 0 0 0-2.38-.65h-13A2.65 2.65 0 0 0 0 2.59v29.82a2.65 2.65 0 0 0 2.65 2.65h20.66A2.65 2.65 0 0 0 26 32.41V11a6.47 6.47 0 0 0-.69-2.54zm-7-6.15l.2.2L23.49 8a3.28 3.28 0 0 1 .3.4H19.7A1.35 1.35 0 0 1 18.35 7zm6.31 30.09a1.35 1.35 0 0 1-1.35 1.35H2.69a1.35 1.35 0 0 1-1.35-1.35V2.59a1.35 1.35 0 0 1 1.35-1.35h13a3.84 3.84 0 0 1 1.31.31V7a2.65 2.65 0 0 0 2.7 2.7h4.7a4.49 4.49 0 0 1 .26 1.3z"/>
  </symbol>
</svg>